HIERARCHY
ROOT Hips
{
 OFFSET 0.000000 0.000000 0.000000
 CHANNELS 6 Xposition Yposition Zposition Yrotation Xrotation Zrotation
 JOINT Chest
 {
  OFFSET 0.000000 13.173100 -0.061900
  CHANNELS 3 Yrotation Xrotation Zrotation
  JOINT Chest2
  {
   OFFSET 0.000000 8.040800 0.126200
   CHANNELS 3 Yrotation Xrotation Zrotation
   JOINT Chest3
   {
    OFFSET 0.000000 7.994400 0.000000
    CHANNELS 3 Yrotation Xrotation Zrotation
    JOINT Chest4
    {
     OFFSET 0.000000 7.986200 0.000000
     CHANNELS 3 Yrotation Xrotation Zrotation
     JOINT Neck
     {
      OFFSET 0.000000 12.259400 0.000000
      CHANNELS 3 Yrotation Xrotation Zrotation
      JOINT Head
      {
       OFFSET 0.000000 7.518700 0.267100
       CHANNELS 3 Yrotation Xrotation Zrotation
       End Site
       {
        OFFSET 0.000000 13.617700 0.141000
       }
      }
     }
     JOINT RightCollar
     {
      OFFSET -2.983800 8.314300 0.000000
      CHANNELS 3 Yrotation Xrotation Zrotation
      JOINT RightShoulder
      {
       OFFSET -16.133400 0.000000 0.000000
       CHANNELS 3 Yrotation Xrotation Zrotation
       JOINT RightElbow
       {
        OFFSET 0.000000 -29.822100 0.000000
        CHANNELS 3 Yrotation Xrotation Zrotation
        JOINT RightWrist
        {
         OFFSET 0.000000 -24.437700 0.010900
         CHANNELS 3 Yrotation Xrotation Zrotation
         End Site
         {
          OFFSET 0.000000 -18.312300 0.000000
         }
        }
       }
      }
     }
     JOINT LeftCollar
     {
      OFFSET 2.983800 8.314300 0.000000
      CHANNELS 3 Yrotation Xrotation Zrotation
      JOINT LeftShoulder
      {
       OFFSET 16.133400 0.000000 0.000000
       CHANNELS 3 Yrotation Xrotation Zrotation
       JOINT LeftElbow
       {
        OFFSET 0.000000 -29.822100 0.000000
        CHANNELS 3 Yrotation Xrotation Zrotation
        JOINT LeftWrist
        {
         OFFSET 0.000000 -24.437700 0.010900
         CHANNELS 3 Yrotation Xrotation Zrotation
         End Site
         {
          OFFSET 0.000000 -18.312300 0.000000
         }
        }
       }
      }
     }
    }
   }
  }
 }
 JOINT RightHip
 {
  OFFSET -11.206700 0.306200 0.030900
  CHANNELS 3 Yrotation Xrotation Zrotation
  JOINT RightKnee
  {
   OFFSET 0.000000 -57.334900 0.009400
   CHANNELS 3 Yrotation Xrotation Zrotation
   JOINT RightAnkle
   {
    OFFSET 0.000000 -43.376200 0.036600
    CHANNELS 3 Yrotation Xrotation Zrotation
    JOINT RightToe
    {
     OFFSET 0.000000 -10.035500 18.363100
     CHANNELS 3 Yrotation Xrotation Zrotation
     End Site
     {
      OFFSET 0.000000 -1.618500 7.239000
     }
    }
   }
  }
 }
 JOINT LeftHip
 {
  OFFSET 11.206700 0.306200 0.030900
  CHANNELS 3 Yrotation Xrotation Zrotation
  JOINT LeftKnee
  {
   OFFSET 0.000000 -57.334900 0.009400
   CHANNELS 3 Yrotation Xrotation Zrotation
   JOINT LeftAnkle
   {
    OFFSET 0.000000 -43.376200 0.036600
    CHANNELS 3 Yrotation Xrotation Zrotation
    JOINT LeftToe
    {
     OFFSET 0.000000 -10.035500 18.363100
     CHANNELS 3 Yrotation Xrotation Zrotation
     End Site
     {
      OFFSET 0.000000 -1.618500 7.239000
     }
    }
   }
  }
 }
}
MOTION
Frames: 12
Frame Time: 0.008333
0.000000 110.232800 0.000000 0.000000 -5.767877 0.000000 0.000000 11.653817 0.000000 0.000000 -5.885947 0.000000 0.000000 -0.000000 0.000000 0.000000 -0.000000 0.000000 0.000000 12.528835 0.000000 0.000000 0.711642 0.000000 0.000000 -0.000000 0.000000 0.000000 0.000000 -90.000000 0.000000 -2.309062 0.000000 0.000000 2.309062 0.000000 0.000000 -0.000000 0.000000 0.000000 -0.000000 90.000000 0.000000 -2.309062 0.000000 0.000000 2.309062 0.000000 0.000000 8.520406 0.000000 0.000000 1.905762 0.000000 -0.000000 -4.658285 0.000000 0.000000 -0.000000 0.000000 0.000000 8.520406 0.000000 0.000000 1.905762 0.000000 -0.000000 -4.658285 0.000000 0.000000 -0.000000 0.000000
-96.278432 64.260085 88.543476 173.885256 -35.251911 -1.819051 3.746141 23.789724 2.724361 0.471527 3.634809 0.483751 0.767217 5.811221 0.788500 3.075975 19.854139 3.132589 -0.035157 14.893430 -0.707812 0.199216 -8.134558 -1.312215 -2.617182 1.314105 -2.458712 -5.901920 -15.518952 -1.247369 -90.706952 -30.854505 115.447139 -12.929273 8.091511 46.211834 -6.093823 1.633044 -0.494508 10.816930 -19.308875 0.439413 77.029541 -19.537585 -115.386591 23.389755 8.926783 -28.406340 -2.768558 -46.260714 2.778244 -117.842838 86.227770 -113.308670 0.049675 -9.085300 -3.069721 0.430893 -0.762269 0.253458 -2.802501 -42.433608 3.241829 76.746121 82.271940 66.610470 -5.950377 -12.778115 7.334789 0.306330 1.196239 0.122233
-96.286414 64.260384 88.549555 173.869767 -35.255509 -1.824371 3.779996 23.845668 2.753100 0.476957 3.657711 0.488552 0.782736 5.874035 0.800828 3.091200 19.872212 3.147065 0.007122 14.917552 -0.691506 0.272030 -8.089405 -1.297280 -2.605089 1.325025 -2.453400 -5.827678 -15.564022 -1.197064 -90.606773 -30.872875 115.074895 -13.204349 7.832434 45.522205 -6.154114 1.639900 -0.488957 10.646006 -19.401411 0.395879 77.020975 -19.310206 -115.047611 23.782313 8.328903 -27.341136 -2.759127 -46.261626 2.794728 -117.683770 86.241380 -113.153104 0.044838 -9.054110 -3.069539 0.427781 -0.766676 0.255391 -2.821918 -42.435842 3.237300 76.694319 82.269138 66.572860 -5.908475 -12.749709 7.332434 0.301460 1.186249 0.107011
-96.293306 64.259405 88.559089 173.849299 -35.246855 -1.842248 3.821361 23.887570 2.795622 0.481838 3.679283 0.493472 0.790533 5.906495 0.808703 3.112362 19.915427 3.168051 0.051498 14.944129 -0.676346 0.349131 -8.039645 -1.285274 -2.597040 1.341602 -2.450847 -5.747384 -15.607873 -1.142013 -90.495528 -30.886628 114.685996 -13.446711 7.587571 44.898629 -6.206460 1.645867 -0.484709 10.481073 -19.476618 0.351194 77.012893 -19.068757 -114.717801 24.117145 7.764017 -26.347444 -2.766811 -46.272243 2.840474 -117.276600 86.245718 -112.755906 0.048407 -9.016651 -3.054791 0.421204 -0.772227 0.251153 -2.853759 -42.452844 3.248181 76.497894 82.299762 66.417257 -5.842397 -12.717562 7.294408 0.330669 1.172235 0.101161
-96.304659 64.264034 88.561250 173.838478 -35.276662 -1.850452 3.846253 23.967478 2.821818 0.486365 3.699764 0.498400 0.797790 5.937313 0.816608 3.131906 19.956254 3.189252 0.097727 14.973193 -0.662294 0.430051 -7.985254 -1.276005 -2.594357 1.361679 -2.449447 -5.655326 -15.645609 -1.087220 -90.374996 -30.887701 114.283532 -13.650932 7.363171 44.354941 -6.252022 1.649239 -0.483639 10.330202 -19.534419 0.308402 77.001589 -18.828967 -114.395792 24.401289 7.230270 -25.426718 -2.772558 -46.238268 2.858192 -117.082263 86.252033 -112.566001 0.046809 -9.002504 -3.056249 0.423413 -0.772258 0.252827 -2.883825 -42.428910 3.233159 76.523164 82.274609 66.451718 -5.787611 -12.681242 7.299825 0.305965 1.154558 0.077359
-96.315142 64.267325 88.566320 173.820846 -35.291684 -1.865279 3.880051 24.028918 2.859187 0.490677 3.719452 0.503243 0.804689 5.966888 0.824389 3.150429 19.995234 3.210195 0.141568 15.003289 -0.648679 0.506716 -7.928933 -1.266544 -2.596975 1.382411 -2.449669 -5.552042 -15.674636 -1.032307 -90.243550 -30.872504 113.866885 -13.817550 7.162178 43.891382 -6.296291 1.652798 -0.483835 10.194899 -19.580522 0.265210 76.991167 -18.603554 -114.077356 24.631289 6.727812 -24.581736 -2.785497 -46.220804 2.894847 -116.782701 86.260776 -112.275789 0.049584 -8.976781 -3.050322 0.420278 -0.767505 0.244929 -2.900143 -42.415237 3.252362 76.530450 82.263369 66.460009 -5.795913 -12.653539 7.313437 0.305946 1.148826 0.075430
-96.327341 64.269124 88.573727 173.805742 -35.290569 -1.878708 3.909451 24.060519 2.891268 0.494515 3.749157 0.508792 0.809112 5.972871 0.827981 3.172068 20.053996 3.236476 0.181839 15.033683 -0.635464 0.576843 -7.872149 -1.256518 -2.604448 1.406195 -2.451303 -5.439778 -15.698779 -0.974216 -90.100085 -30.841891 113.439681 -13.951610 6.991074 43.488978 -6.339719 1.659308 -0.483434 10.076823 -19.617677 0.219404 76.984508 -18.399776 -113.763180 24.808174 6.262325 -23.820825 -2.801535 -46.219321 2.932021 -116.415728 86.269053 -111.924784 0.051690 -8.950730 -3.037859 0.414917 -0.765062 0.240933 -2.924476 -42.423635 3.241863 76.527738 82.236581 66.476151 -5.740761 -12.621796 7.306023 0.259372 1.141101 0.064027
-96.338256 64.273608 88.577672 173.805848 -35.303909 -1.906531 3.925476 24.083124 2.925455 0.495066 3.799506 0.515227 0.815084 5.999607 0.835192 3.187837 20.088853 3.255808 0.222890 15.063224 -0.623812 0.648907 -7.817021 -1.249729 -2.609973 1.433622 -2.452086 -5.326328 -15.720913 -0.912390 -89.941143 -30.801659 113.009430 -14.061064 6.853195 43.128172 -6.372398 1.665999 -0.486088 9.970519 -19.641087 0.175419 76.984516 -18.220762 -113.458600 24.938173 5.843176 -23.154324 -2.831439 -46.197894 2.970407 -116.137187 86.278880 -111.652350 0.048023 -8.934107 -3.027593 0.415139 -0.762765 0.233839 -2.953589 -42.411475 3.258494 76.507455 82.227504 66.471814 -5.741447 -12.600654 7.283185 0.265404 1.158170 0.102527
-96.348902 64.278409 88.580959 173.787506 -35.315741 -1.924426 3.954743 24.136483 2.960481 0.491070 3.814035 0.517119 0.822251 6.046443 0.845365 3.196439 20.099350 3.265906 0.266341 15.090766 -0.613388 0.725905 -7.765481 -1.246022 -2.610208 1.465702 -2.449897 -5.224849 -15.740310 -0.843459 -89.763797 -30.759063 112.582363 -14.147848 6.744315 42.797575 -6.389258 1.675580 -0.490995 9.865514 -19.650592 0.137015 76.998122 -18.061499 -113.167037 25.022706 5.479481 -22.586403 -2.851072 -46.176671 3.015332 -115.739265 86.282728 -111.266935 0.053815 -8.922717 -3.017867 0.412128 -0.752754 0.231493 -2.967848 -42.400807 3.261262 76.539962 82.201147 66.529030 -5.729819 -12.585350 7.270725 0.263020 1.157906 0.103072
-96.358285 64.284024 88.582684 173.768899 -35.330282 -1.945317 3.976236 24.191407 2.993751 0.497076 3.799625 0.517240 0.824477 6.058096 0.848064 3.205915 20.164316 3.284632 0.309827 15.116333 -0.603786 0.803334 -7.717441 -1.243818 -2.608054 1.504104 -2.443194 -5.145639 -15.756947 -0.764961 -89.568146 -30.718288 112.165171 -14.212834 6.653768 42.478623 -6.397214 1.692272 -0.492407 9.765351 -19.651046 0.100255 77.020838 -17.918379 -112.888759 25.065965 5.173847 -22.110514 -2.867883 -46.154836 3.064646 -115.409229 86.290276 -110.948977 0.047080 -8.904303 -3.001101 0.411107 -0.750822 0.226830 -2.979604 -42.386871 3.268585 76.526471 82.196066 66.549497 -5.714091 -12.574049 7.250323 0.280925 1.158594 0.109382
-96.368032 64.287871 88.585863 173.740449 -35.330350 -1.956578 4.001281 24.228531 3.017837 0.504165 3.787247 0.519497 0.826385 6.068963 0.850599 3.215532 20.222288 3.300971 0.351256 15.139621 -0.595420 0.877388 -7.673729 -1.243229 -2.606054 1.546087 -2.430315 -5.089981 -15.770619 -0.681664 -89.360132 -30.686478 111.765502 -14.266155 6.569451 42.156425 -6.405309 1.714431 -0.489044 9.680706 -19.642910 0.059926 77.042923 -17.794457 -112.624447 25.073020 4.925367 -21.714567 -2.871077 -46.152525 3.105454 -115.039579 86.293401 -110.587420 0.047743 -8.873810 -2.988683 0.408827 -0.756210 0.224154 -2.976520 -42.383993 3.271000 76.512390 82.182875 66.556247 -5.688478 -12.571885 7.245848 0.275113 1.165612 0.110078
-96.379607 64.294066 88.584092 173.726785 -35.348342 -1.961833 4.010231 24.278920 3.028484 0.499136 3.846552 0.522319 0.835570 6.091861 0.857765 3.221274 20.153712 3.292354 0.393339 15.203692 -0.578371 0.945007 -7.634355 -1.243357 -2.604649 1.632365 -2.404069 -5.050204 -15.777589 -0.600678 -89.158366 -30.671776 111.392929 -14.316599 6.488517 41.830904 -6.414114 1.783930 -0.477262 9.610014 -19.624414 0.013406 77.065917 -17.694124 -112.378058 25.047526 4.733328 -21.381392 -2.867972 -46.130356 3.119413 -114.868889 86.297165 -110.417396 0.039180 -8.859647 -2.984095 0.416341 -0.761676 0.224267 -2.969318 -42.361902 3.253788 76.482739 82.176155 66.544741 -5.663339 -12.565960 7.245977 0.271241 1.167437 0.110612
